<?xml version="1.0" encoding="us-ascii" standalone="no"?><svg xmlns="http://www.w3.org/2000/svg" xmlns:xlink="http://www.w3.org/1999/xlink" contentStyleType="text/css" height="811px" preserveAspectRatio="none" style="width:338px;height:811px;background:#FFFFFF;" version="1.1" viewBox="0 0 338 811" width="338px" zoomAndPan="magnify"><defs/><g><rect fill="none" height="83.118" style="stroke:#000000;stroke-width:1.5;" width="230" x="102.5" y="132.7739"/><rect fill="none" height="83.118" style="stroke:#000000;stroke-width:1.5;" width="230" x="102.5" y="229.892"/><rect fill="none" height="146.5301" style="stroke:#000000;stroke-width:1.5;" width="322.5" x="10" y="390.4221"/><rect fill="none" height="127.8241" style="stroke:#000000;stroke-width:1.5;" width="322.5" x="10" y="550.9521"/><line style="stroke:#181818;stroke-width:0.5;stroke-dasharray:5.0,5.0;" x1="38" x2="38" y1="84.0679" y2="727.4822"/><line style="stroke:#181818;stroke-width:0.5;stroke-dasharray:5.0,5.0;" x1="130.5" x2="130.5" y1="84.0679" y2="727.4822"/><line style="stroke:#181818;stroke-width:0.5;stroke-dasharray:5.0,5.0;" x1="303.5" x2="303.5" y1="84.0679" y2="727.4822"/><text fill="#000000" font-family="sans-serif" font-size="14" lengthAdjust="spacing" textLength="31" x="20" y="79.9659">User</text><ellipse cx="38.5" cy="13.5" fill="#E2E2F0" rx="8" ry="8" style="stroke:#181818;stroke-width:0.5;"/><path d="M38.5,21.5 L38.5,48.5 M25.5,29.5 L51.5,29.5 M38.5,48.5 L25.5,63.5 M38.5,48.5 L51.5,63.5 " fill="none" style="stroke:#181818;stroke-width:0.5;"/><text fill="#000000" font-family="sans-serif" font-size="14" lengthAdjust="spacing" textLength="31" x="20" y="741.4482">User</text><ellipse cx="38.5" cy="754.0501" fill="#E2E2F0" rx="8" ry="8" style="stroke:#181818;stroke-width:0.5;"/><path d="M38.5,762.0501 L38.5,789.0501 M25.5,770.0501 L51.5,770.0501 M38.5,789.0501 L25.5,804.0501 M38.5,789.0501 L51.5,804.0501 " fill="none" style="stroke:#181818;stroke-width:0.5;"/><text fill="#000000" font-family="sans-serif" font-size="14" lengthAdjust="spacing" textLength="30" x="112.5" y="79.9659">Root</text><ellipse cx="130.5" cy="13.5" fill="#E2E2F0" rx="8" ry="8" style="stroke:#181818;stroke-width:0.5;"/><path d="M130.5,21.5 L130.5,48.5 M117.5,29.5 L143.5,29.5 M130.5,48.5 L117.5,63.5 M130.5,48.5 L143.5,63.5 " fill="none" style="stroke:#181818;stroke-width:0.5;"/><text fill="#000000" font-family="sans-serif" font-size="14" lengthAdjust="spacing" textLength="30" x="112.5" y="741.4482">Root</text><ellipse cx="130.5" cy="754.0501" fill="#E2E2F0" rx="8" ry="8" style="stroke:#181818;stroke-width:0.5;"/><path d="M130.5,762.0501 L130.5,789.0501 M117.5,770.0501 L143.5,770.0501 M130.5,789.0501 L117.5,804.0501 M130.5,789.0501 L143.5,804.0501 " fill="none" style="stroke:#181818;stroke-width:0.5;"/><rect fill="#E2E2F0" height="33.0679" rx="2.5" ry="2.5" style="stroke:#181818;stroke-width:0.5;" width="38" x="284.5" y="50"/><text fill="#000000" font-family="sans-serif" font-size="14" lengthAdjust="spacing" textLength="24" x="291.5" y="71.9659">VPS</text><rect fill="#E2E2F0" height="33.0679" rx="2.5" ry="2.5" style="stroke:#181818;stroke-width:0.5;" width="38" x="284.5" y="726.4822"/><text fill="#000000" font-family="sans-serif" font-size="14" lengthAdjust="spacing" textLength="24" x="291.5" y="748.4482">VPS</text><polygon fill="#181818" points="291.5,113.7739,301.5,117.7739,291.5,121.7739,295.5,117.7739" style="stroke:#181818;stroke-width:1.0;"/><line style="stroke:#181818;stroke-width:1.0;" x1="130.5" x2="297.5" y1="117.7739" y2="117.7739"/><text fill="#000000" font-family="sans-serif" font-size="13" lengthAdjust="spacing" textLength="120" x="137.5" y="111.9649">update &amp;&amp; upgrade</text><path d="M102.5,132.7739 L204.5,132.7739 L204.5,142.4799 L194.5,152.4799 L102.5,152.4799 L102.5,132.7739 " fill="#EEEEEE" style="stroke:#000000;stroke-width:1.5;"/><rect fill="none" height="83.118" style="stroke:#000000;stroke-width:1.5;" width="230" x="102.5" y="132.7739"/><text fill="#000000" font-family="sans-serif" font-size="13" font-weight="bold" lengthAdjust="spacing" textLength="57" x="117.5" y="147.6709">Add user</text><polygon fill="#181818" points="291.5,172.186,301.5,176.186,291.5,180.186,295.5,176.186" style="stroke:#181818;stroke-width:1.0;"/><line style="stroke:#181818;stroke-width:1.0;" x1="130.5" x2="297.5" y1="176.186" y2="176.186"/><text fill="#000000" font-family="sans-serif" font-size="13" lengthAdjust="spacing" textLength="52" x="137.5" y="170.377">add user</text><polygon fill="#181818" points="291.5,203.892,301.5,207.892,291.5,211.892,295.5,207.892" style="stroke:#181818;stroke-width:1.0;"/><line style="stroke:#181818;stroke-width:1.0;" x1="130.5" x2="297.5" y1="207.892" y2="207.892"/><text fill="#000000" font-family="sans-serif" font-size="13" lengthAdjust="spacing" textLength="96" x="137.5" y="202.083">add sudo group</text><path d="M102.5,229.892 L236.5,229.892 L236.5,239.598 L226.5,249.598 L102.5,249.598 L102.5,229.892 " fill="#EEEEEE" style="stroke:#000000;stroke-width:1.5;"/><rect fill="none" height="83.118" style="stroke:#000000;stroke-width:1.5;" width="230" x="102.5" y="229.892"/><text fill="#000000" font-family="sans-serif" font-size="13" font-weight="bold" lengthAdjust="spacing" textLength="89" x="117.5" y="244.789">Close ssh root</text><polygon fill="#181818" points="291.5,269.304,301.5,273.304,291.5,277.304,295.5,273.304" style="stroke:#181818;stroke-width:1.0;"/><line style="stroke:#181818;stroke-width:1.0;" x1="130.5" x2="297.5" y1="273.304" y2="273.304"/><text fill="#000000" font-family="sans-serif" font-size="13" lengthAdjust="spacing" textLength="92" x="137.5" y="267.495">close root login</text><polygon fill="#181818" points="291.5,301.01,301.5,305.01,291.5,309.01,295.5,305.01" style="stroke:#181818;stroke-width:1.0;"/><line style="stroke:#181818;stroke-width:1.0;" x1="130.5" x2="297.5" y1="305.01" y2="305.01"/><text fill="#000000" font-family="sans-serif" font-size="13" lengthAdjust="spacing" textLength="73" x="137.5" y="299.201">change port</text><line style="stroke:#181818;stroke-width:2.0;" x1="285.5" x2="295.5" y1="338.716" y2="348.716"/><line style="stroke:#181818;stroke-width:2.0;" x1="285.5" x2="295.5" y1="348.716" y2="338.716"/><line style="stroke:#181818;stroke-width:1.0;" x1="130.5" x2="290.5" y1="343.716" y2="343.716"/><text fill="#000000" font-family="sans-serif" font-size="13" lengthAdjust="spacing" textLength="109" x="137.5" y="337.907">can't connect root</text><line style="stroke:#181818;stroke-width:2.0;" x1="285.5" x2="295.5" y1="370.4221" y2="380.4221"/><line style="stroke:#181818;stroke-width:2.0;" x1="285.5" x2="295.5" y1="380.4221" y2="370.4221"/><line style="stroke:#181818;stroke-width:1.0;" x1="130.5" x2="290.5" y1="375.4221" y2="375.4221"/><text fill="#000000" font-family="sans-serif" font-size="13" lengthAdjust="spacing" textLength="126" x="137.5" y="369.6131">can't connect port 22</text><path d="M10,390.4221 L166,390.4221 L166,400.1281 L156,410.1281 L10,410.1281 L10,390.4221 " fill="#EEEEEE" style="stroke:#000000;stroke-width:1.5;"/><rect fill="none" height="146.5301" style="stroke:#000000;stroke-width:1.5;" width="322.5" x="10" y="390.4221"/><text fill="#000000" font-family="sans-serif" font-size="13" font-weight="bold" lengthAdjust="spacing" textLength="111" x="25" y="405.3191">first ufw settings</text><polygon fill="#181818" points="291.5,429.8341,301.5,433.8341,291.5,437.8341,295.5,433.8341" style="stroke:#181818;stroke-width:1.0;"/><line style="stroke:#181818;stroke-width:1.0;" x1="38.5" x2="297.5" y1="433.8341" y2="433.8341"/><text fill="#000000" font-family="sans-serif" font-size="13" lengthAdjust="spacing" textLength="60" x="45.5" y="428.0251">install ufw</text><polygon fill="#181818" points="291.5,461.5401,301.5,465.5401,291.5,469.5401,295.5,465.5401" style="stroke:#181818;stroke-width:1.0;"/><line style="stroke:#181818;stroke-width:1.0;" x1="38.5" x2="297.5" y1="465.5401" y2="465.5401"/><text fill="#000000" font-family="sans-serif" font-size="13" lengthAdjust="spacing" textLength="241" x="45.5" y="459.7311">change port in OpenSSH application ufw</text><polygon fill="#181818" points="291.5,493.2461,301.5,497.2461,291.5,501.2461,295.5,497.2461" style="stroke:#181818;stroke-width:1.0;"/><line style="stroke:#181818;stroke-width:1.0;" x1="38.5" x2="297.5" y1="497.2461" y2="497.2461"/><text fill="#000000" font-family="sans-serif" font-size="13" lengthAdjust="spacing" textLength="115" x="45.5" y="491.4371">add rules OpenSSH</text><polygon fill="#181818" points="291.5,524.9521,301.5,528.9521,291.5,532.9521,295.5,528.9521" style="stroke:#181818;stroke-width:1.0;"/><line style="stroke:#181818;stroke-width:1.0;" x1="38.5" x2="297.5" y1="528.9521" y2="528.9521"/><text fill="#000000" font-family="sans-serif" font-size="13" lengthAdjust="spacing" textLength="65" x="45.5" y="523.1431">enable ufw</text><path d="M10,550.9521 L84,550.9521 L84,560.6582 L74,570.6582 L10,570.6582 L10,550.9521 " fill="#EEEEEE" style="stroke:#000000;stroke-width:1.5;"/><rect fill="none" height="127.8241" style="stroke:#000000;stroke-width:1.5;" width="322.5" x="10" y="550.9521"/><text fill="#000000" font-family="sans-serif" font-size="13" font-weight="bold" lengthAdjust="spacing" textLength="29" x="25" y="565.8492">keys</text><line style="stroke:#181818;stroke-width:1.0;" x1="38.5" x2="80.5" y1="594.3642" y2="594.3642"/><line style="stroke:#181818;stroke-width:1.0;" x1="80.5" x2="80.5" y1="594.3642" y2="607.3642"/><line style="stroke:#181818;stroke-width:1.0;" x1="39.5" x2="80.5" y1="607.3642" y2="607.3642"/><polygon fill="#181818" points="49.5,603.3642,39.5,607.3642,49.5,611.3642,45.5,607.3642" style="stroke:#181818;stroke-width:1.0;"/><text fill="#000000" font-family="sans-serif" font-size="13" lengthAdjust="spacing" textLength="78" x="45.5" y="588.5552">generate key</text><polygon fill="#181818" points="291.5,635.0702,301.5,639.0702,291.5,643.0702,295.5,639.0702" style="stroke:#181818;stroke-width:1.0;"/><line style="stroke:#181818;stroke-width:1.0;" x1="38.5" x2="297.5" y1="639.0702" y2="639.0702"/><text fill="#000000" font-family="sans-serif" font-size="13" lengthAdjust="spacing" textLength="93" x="45.5" y="633.2612">add publick key</text><polygon fill="#181818" points="291.5,666.7762,301.5,670.7762,291.5,674.7762,295.5,670.7762" style="stroke:#181818;stroke-width:1.0;"/><line style="stroke:#181818;stroke-width:1.0;" x1="38.5" x2="297.5" y1="670.7762" y2="670.7762"/><text fill="#000000" font-family="sans-serif" font-size="13" lengthAdjust="spacing" textLength="124" x="45.5" y="664.9672">close password login</text><line style="stroke:#181818;stroke-width:2.0;" x1="285.5" x2="295.5" y1="704.4822" y2="714.4822"/><line style="stroke:#181818;stroke-width:2.0;" x1="285.5" x2="295.5" y1="714.4822" y2="704.4822"/><line style="stroke:#181818;stroke-width:1.0;" x1="38.5" x2="290.5" y1="709.4822" y2="709.4822"/><text fill="#000000" font-family="sans-serif" font-size="13" lengthAdjust="spacing" textLength="104" x="45.5" y="703.6732">login without key</text><!--SRC=[XP4zJmCn38Rt_0fFPMBfs049iR21g8fOtOjxZHevKUnGyUz9V6tvq1LkyPtz-FLxDWwQ2co42g10xT6XvLvIqfuhBRgCHSCGChB2w_EwvnlwxbolmksTVS4AQlQe18j5UniBUd9ZIJN3lVScxg0zlthmdvfKdy1a7B67a-93J48WifyCplGEHbWofZ7mBBD77WboAjh5p__pTgaZtoWCYPa6dIRzINGXM2xToUGk556eksEZLGEFOYPipLyc0ejYZ9sRAt_ps51uoiJhzIDWpZ4Cg27njSw-lL8ZoRbf3YB6RIIJi0rCpW_q8V03jxY2aPXAlt4ZhitCTTki7QuXqs4oYXnJyQVZsEm9lEpMAd0CkazLJSrz0W00]--></g></svg>